<svg xmlns="http://www.w3.org/2000/svg" width="1200" height="760" viewBox="0 0 1200 760">
  <rect width="1200" height="760" fill="#f6f7f9"/>
  <rect x="70" y="60" width="1060" height="640" rx="22" fill="#fff" stroke="#dfe3ea" stroke-width="3"/>
  <rect x="70" y="60" width="260" height="640" rx="22" fill="#111827"/>
  <rect x="70" y="60" width="260" height="640" rx="22" fill="none" stroke="#111827" stroke-width="3"/>
  <text x="112" y="125" fill="#fff" font-size="34" font-family="Arial, Helvetica, sans-serif" font-weight="700">Netlify</text>
  <text x="112" y="175" fill="#9ca3af" font-size="22" font-family="Arial, Helvetica, sans-serif">你的站点</text>
  <rect x="102" y="225" width="196" height="52" rx="12" fill="#1f2937"/>
  <text x="126" y="258" fill="#d1d5db" font-size="20" font-family="Arial, Helvetica, sans-serif">Deploys</text>
  <rect x="102" y="300" width="196" height="62" rx="12" fill="#fa2d30"/>
  <text x="126" y="339" fill="#fff" font-size="20" font-family="Arial, Helvetica, sans-serif" font-weight="700">Project configuration</text>
  <rect x="102" y="385" width="196" height="52" rx="12" fill="#1f2937"/>
  <text x="126" y="418" fill="#d1d5db" font-size="20" font-family="Arial, Helvetica, sans-serif">Domain management</text>
  <rect x="380" y="105" width="690" height="90" rx="18" fill="#f9fafb" stroke="#dfe3ea" stroke-width="2"/>
  <text x="420" y="160" fill="#111827" font-size="36" font-family="Arial, Helvetica, sans-serif" font-weight="700">Project configuration</text>
  <rect x="380" y="230" width="690" height="85" rx="16" fill="#fff" stroke="#dfe3ea" stroke-width="2"/>
  <text x="420" y="282" fill="#374151" font-size="25" font-family="Arial, Helvetica, sans-serif">Build & deploy</text>
  <rect x="380" y="340" width="690" height="95" rx="16" fill="#fff5f5" stroke="#fa2d30" stroke-width="4"/>
  <text x="420" y="385" fill="#b9151a" font-size="28" font-family="Arial, Helvetica, sans-serif" font-weight="700">Environment variables</text>
  <text x="420" y="418" fill="#4b5563" font-size="20" font-family="Arial, Helvetica, sans-serif">这里就是添加 ADMIN_PASSWORD 等变量的地方</text>
  <rect x="380" y="465" width="690" height="85" rx="16" fill="#fff" stroke="#dfe3ea" stroke-width="2"/>
  <text x="420" y="517" fill="#374151" font-size="25" font-family="Arial, Helvetica, sans-serif">Functions</text>
  <path d="M333 331 C380 331 356 388 380 388" fill="none" stroke="#fa2d30" stroke-width="5" stroke-linecap="round"/>
  <circle cx="102" cy="331" r="21" fill="#fff"/>
  <text x="95" y="339" fill="#fa2d30" font-size="24" font-family="Arial, Helvetica, sans-serif" font-weight="700">1</text>
  <circle cx="1070" cy="388" r="27" fill="#fa2d30"/>
  <text x="1062" y="397" fill="#fff" font-size="26" font-family="Arial, Helvetica, sans-serif" font-weight="700">2</text>
  <text x="380" y="630" fill="#111827" font-size="24" font-family="Arial, Helvetica, sans-serif" font-weight="700">操作顺序</text>
  <text x="380" y="666" fill="#374151" font-size="21" font-family="Arial, Helvetica, sans-serif">先点左侧 Project configuration，再点 Environment variables。</text>
  <text x="380" y="696" fill="#6b7280" font-size="18" font-family="Arial, Helvetica, sans-serif">如果你的界面显示 Site configuration，也点它，位置和作用一样。</text>
</svg>
